<mxfile host="app.diagrams.net" modified="2024-03-04T14:18:19.562Z" agent="Mozilla/5.0 (X11; Ubuntu; Linux x86_64; rv:109.0) Gecko/20100101 Firefox/114.0" etag="x1sEtwRk3i0r3hC53UmK" version="24.0.1" type="github">
  <diagram name="Page-1" id="K9QokAMPmZIWykijiVSQ">
    <mxGraphModel dx="1434" dy="822" grid="1" gridSize="10" guides="1" tooltips="1" connect="1" arrows="1" fold="1" page="1" pageScale="1" pageWidth="850" pageHeight="1100" math="0" shadow="0">
      <root>
        <mxCell id="0" />
        <mxCell id="1" parent="0" />
      </root>
    </mxGraphModel>
  </diagram>
</mxfile>
